# AST/ASF file generated using VICON BodyLanguage
# -----------------------------------------------
:version 1.10
:name VICON
:units
  mass 1.0
  length 0.45
  angle deg
:documentation
   .ast/.asf automatically generated from VICON data using
   VICON BodyBuilder and BodyLanguage model FoxedUp or BRILLIANT.MOD
:root
   order TX TY TZ RX RY RZ
   axis XYZ
   position 0 0 0  
   orientation 0 0 0 
:bonedata
  begin
     id 1 
     name lhipjoint
     direction 0.561001 -0.76473 0.316963 
     length 2.4722 
     axis 0 0 0  XYZ
  end
  begin
     id 2 
     name lfemur
     direction 0.34202 -0.939693 0  
     length 7.59403  
     axis 0 0 20  XYZ
    dof rx ry rz
    limits (-160.0 20.0)
           (-70.0 70.0)
           (-60.0 70.0)
  end
  begin
     id 3 
     name ltibia
     direction 0.34202 -0.939693 0   
     length 7.89655   
     axis 0 0 20   XYZ
    dof rx
    limits (-10.0 170.0)
  end
  begin
     id 4 
     name lfoot
     direction 0.061296 -0.168409 0.98381   
     length 2.73287   
     axis -90 7.62852e-016 20   XYZ
    dof rx rz
    limits (-45.0 90.0)
           (-70.0 20.0)
  end
  begin
     id 5 
     name ltoes
     direction 1.53547e-011 -4.21984e-011 1   
     length 1.37057   
     axis -90 7.62852e-016 20   XYZ
    dof rx
    limits (-90.0 20.0)
  end
  begin
     id 6 
     name rhipjoint
     direction -0.559611 -0.765599 0.317323   
     length 2.46939  
     axis 0 0 0  XYZ 
  end
  begin
     id 7 
     name rfemur
     direction -0.34202 -0.939693 0   
     length 7.53712   
     axis 0 0 -20   XYZ
    dof rx ry rz
    limits (-160.0 20.0)
           (-70.0 70.0)
           (-70.0 60.0)
  end
  begin
     id 8 
     name rtibia
     direction -0.34202 -0.939693 0   
     length 8.12549   
     axis 0 0 -20   XYZ
    dof rx
    limits (-10.0 170.0)
 end
 begin
     id 9 
     name rfoot
     direction -0.066984 -0.184037 0.980634   
     length 2.67541  
     axis -90 -7.62852e-016 -20   XYZ
    dof rx rz
    limits (-45.0 90.0)
           (-20.0 70.0)
  end
  begin
     id 10 
     name rtoes
     direction -1.53549e-011 -4.21786e-011 1   
     length 1.34085   
     axis -90 -7.62852e-016 -20   XYZ
    dof rx
    limits (-90.0 20.0)
  end
  begin
     id 11 
     name lowerback
     direction -0.0522728 0.992594 -0.109658   
     length 2.05633   
     axis 0 0 0   XYZ
    dof rx ry rz
    limits (-20.0 45.0)
           (-30.0 30.0)
           (-30.0 30.0)
  end
  begin
     id 12 
     name upperback
     direction 0.00589338 0.999977 0.00335704   
     length 2.05845   
     axis 0 0 0   XYZ
    dof rx ry rz
    limits (-20.0 45.0)
           (-30.0 30.0)
           (-30.0 30.0)
  end
  begin
     id 13 
     name thorax
     direction 0.0292928 0.998059 0.0549487   
     length 2.09281   
     axis 0 0 0   XYZ
    dof rx ry rz
    limits (-20.0 45.0)
           (-30.0 30.0)
           (-30.0 30.0)
  end
  begin
     id 14 
     name lowerneck
     direction 0.0356368 0.980775 0.191858   
     length 1.84767   
     axis 0 0 0   XYZ
    dof rx ry rz
    limits (-20.0 45.0)
           (-30.0 30.0)
           (-30.0 30.0)
  end
  begin
     id 15 
     name upperneck
     direction -0.0227605 0.98931 -0.14404   
     length 1.89582   
     axis 0 0 0   XYZ
    dof rx ry rz
    limits (-20.0 45.0)
           (-30.0 30.0)
           (-30.0 30.0)
  end
  begin
     id 16
     name head
     direction -0.00932985 0.997511 -0.0698904  
     length 1.90213  
     axis 0 0 0   XYZ
    dof rx ry rz
    limits (-20.0 45.0)
           (-30.0 30.0)
           (-30.0 30.0)
  end
  begin
     id 17 
     name lclavicle
     direction 0.873442 0.479511 0.0846686  
     length 3.41193  
     axis 0 0 0   XYZ
    dof ry rz
    limits (-20.0 10.0)
           (0.0 20.0)
  end
  begin
     id 18 
     name lhumerus
     direction 1 -4.4897e-011 -5.62117e-018   
     length 5.59864   
     axis 180 -30 -90   XYZ
    dof rx ry rz
    limits (-60.0 90.0)
           (-90.0 90.0)
           (-90.0 90.0)
  end
  begin
     id 19
     name lradius
     direction 1 -4.48966e-011 -6.26295e-027   
     length 3.59542   
     axis 180 -30 -90   XYZ
    dof rx
    limits (-10.0 170.0)
  end
  begin
     id 20
     name lwrist
     direction 1 -4.48947e-011 -1.74096e-026   
     length 1.79771   
     axis 1.04567e-014 90 90   XYZ
    dof ry
    limits (-180.0 0.0)
 end
  begin
     id 21 
     name lhand
     direction 1 -4.49085e-011 -3.48469e-026   
     length 0.572014   
     axis 2.22196e-014 90 90   XYZ
    dof rx rz
    limits (-90.0 90.0)
           (-45.0 45.0)
  end
  begin
     id 22 
     name lfingers
     direction 1 -4.48884e-011 -6.96135e-026   
     length 0.461173   
     axis 4.44383e-014 90 90   XYZ
    dof rx
    limits (0.0 90.0)
  end
  begin
     id 23
     name lthumb
     direction 0.707107 -6.34976e-011 0.707107   
     length 0.662154   
     axis -90 45 -5.4397e-014   XYZ
    dof rx rz
    limits (-45.0 45.0)
           (-45.0 45.0)
  end
  begin
     id 24 
     name rclavicle
     direction -0.890242 0.443271 0.104786   
     length 3.46753  
     axis 0 0 0   XYZ 
    dof ry rz
    limits (-10.0 20.0)
           (-20.0 0.0)
  end
  begin
     id 25 
     name rhumerus
     direction -1 -4.48963e-011 -5.41723e-018  
     length 5.8094   
     axis 180 30 90   XYZ
    dof rx ry rz
    limits (-90.0 60.0)
           (-90.0 90.0)
           (-90.0 90.0)
  end
  begin
     id 26 
     name rradius
     direction -1 -4.48958e-011 -6.51059e-027   
     length 3.66953   
     axis 180 30 90   XYZ
    dof rx
    limits (-10.0 170.0)
  end
  begin
     id 27 
     name rwrist
     direction -1 -4.48975e-011 -1.74124e-026   
     length 1.83476   
     axis 1.04567e-014 -90 -90   XYZ
    dof ry
    limits (-180.0 0.0)
  end
  begin
     id 28
     name rhand
     direction -1 -4.49013e-011 -3.48326e-026   
     length 0.57843   
     axis 2.22196e-014 -90 -90   XYZ
    dof rx rz
    limits (-90.0 90.0)
           (-45.0 45.0)
  end
  begin
     id 29
     name rfingers
     direction -1 -4.49023e-011 -6.9669e-026   
     length 0.466345   
     axis 4.44383e-014 -90 -90   XYZ
    dof rx
    limits (0.0 90.0)
  end
  begin
     id 30
     name rthumb
     direction -0.707107 -6.34926e-011 0.707107   
     length 0.669581   
     axis -90 -45 5.4397e-014   XYZ
    dof rx rz
    limits (-45.0 45.0)
           (-45.0 45.0)
  end
:hierarchy
  begin
    root lhipjoint rhipjoint lowerback
    lhipjoint lfemur
    lfemur ltibia
    ltibia lfoot
    lfoot ltoes
    rhipjoint rfemur
    rfemur rtibia
    rtibia rfoot
    rfoot rtoes
    lowerback upperback
    upperback thorax
    thorax lowerneck lclavicle rclavicle
    lowerneck upperneck
    upperneck head
    lclavicle lhumerus
    lhumerus lradius
    lradius lwrist
    lwrist lhand lthumb
    lhand lfingers
    rclavicle rhumerus
    rhumerus rradius
    rradius rwrist
    rwrist rhand rthumb
    rhand rfingers
  end

#!OML:ASF H:\SkateBoarding\Project 1\Capture day 1\Session 1\Skater.ASF
:FULLY-SPECIFIED
:DEGREES
111
root -13.4969 18.6442 5.98678 11.7367 68.0714 9.69768
lowerback 11.9348 -2.88781 -4.58664
upperback -0.697001 -4.62927 -2.21884
thorax -7.26327 -2.10836 1.05211
lowerneck -19.0663 -4.90369 -2.53875
upperneck 40.2046 -6.20437 1.16966
head 18.4864 -2.39668 -0.197394
rclavicle -7.72278e-014 -2.78299e-014
rhumerus -39.5262 7.85606 -83.2539
rradius 52.517
rwrist -18.1147
rhand -44.3316 1.10851
rfingers 7.12502
rthumb -17.1404 -28.1554
lclavicle -7.72278e-014 -2.78299e-014
lhumerus -20.621 -33.9037 104.669
lradius 69.4131
lwrist 26.3973
lhand -30.4295 6.56598
lfingers 7.12502
lthumb -3.73221 36.513
rfemur -25.9062 -8.51413 16.6232
rtibia 60.9199
rfoot -46.8676 4.71007
rtoes -14.7562
lfemur -18.1272 7.19698 -13.3103
ltibia 64.9565
lfoot -35.6566 -1.93901
ltoes -21.438
112
root -13.481 18.6561 6.38629 11.8196 68.9926 9.80635
lowerback 11.7841 -2.95846 -4.80074
upperback -0.706244 -4.73939 -2.15833
thorax -7.16038 -2.15564 1.24415
lowerneck -18.9996 -4.98904 -2.71963
upperneck 40.2329 -6.28445 1.2398
head 18.5018 -2.44274 -0.147114
rclavicle 1.54058e-015 -2.62396e-014
rhumerus -40.012 7.40153 -83.3952
rradius 52.6675
rwrist -18.7161
rhand -43.4921 1.41145
rfingers 7.12502
rthumb -16.3323 -27.9208
lclavicle 1.54058e-015 -2.62396e-014
lhumerus -21.3518 -33.6538 105.123
lradius 68.5945
lwrist 26.2494
lhand -29.9954 6.60476
lfingers 7.12502
lthumb -3.31302 36.5588
rfemur -25.537 -8.4126 16.7278
rtibia 60.586
rfoot -47.3586 4.54153
rtoes -14.5086
lfemur -17.7579 7.41643 -14.0583
ltibia 62.8778
lfoot -36.6159 -0.235514
ltoes -22.1007
113
root -13.4614 18.6772 6.7883 11.8837 69.8751 9.90435
lowerback 11.5923 -2.92271 -5.02129
upperback -0.689516 -4.70763 -2.16671
thorax -7.01869 -2.13618 1.33978
lowerneck -18.882 -5.15315 -2.76857
upperneck 40.2356 -6.5467 1.32534
head 18.4878 -2.53825 -0.149173
rclavicle 3.19546e-014 1.11319e-014
rhumerus -40.658 6.87312 -83.7559
rradius 52.7084
rwrist -18.1994
rhand -44.1293 0.912219
rfingers 7.12502
rthumb -16.9457 -28.3685
lclavicle 3.19546e-014 1.11319e-014
lhumerus -22.1205 -33.6882 105.638
lradius 67.6634
lwrist 26.1875
lhand -29.8864 6.55276
lfingers 7.12502
lthumb -3.20776 36.5084
rfemur -25.2278 -8.30218 16.7842
rtibia 60.2715
rfoot -47.6323 4.44989
rtoes -13.3209
lfemur -17.2791 7.74039 -14.7583
ltibia 61.0179
lfoot -38.5173 3.03982
ltoes -24.3152
114
root -13.4368 18.7114 7.18444 11.8716 70.7967 9.8561
lowerback 11.3965 -3.03736 -5.17296
upperback -0.71235 -4.86166 -2.05776
thorax -6.90167 -2.20783 1.5515
lowerneck -18.8396 -5.18508 -2.86954
upperneck 40.2538 -6.53499 1.29792
head 18.491 -2.55054 -0.140049
rclavicle 4.58199e-014 2.54444e-014
rhumerus -41.1333 6.81669 -84.0334
rradius 52.8132
rwrist -18.6257
rhand -43.9566 1.18807
rfingers 7.12502
rthumb -16.7794 -28.1069
lclavicle 4.58199e-014 2.54444e-014
lhumerus -22.7534 -33.2162 106.079
lradius 66.7237
lwrist 25.9292
lhand -29.7965 6.89338
lfingers 7.12502
lthumb -3.12092 36.8503
rfemur -25.0355 -8.31557 16.8905
rtibia 59.9676
rfoot -47.693 3.93497
rtoes -12.7114
lfemur -16.9025 7.92979 -15.3826
ltibia 59.4877
lfoot -40.4565 6.64109
ltoes -25.6412
115
root -13.4136 18.7361 7.58431 11.682 71.6445 9.69555
lowerback 11.2386 -3.09928 -5.37973
upperback -0.710795 -4.95382 -1.95783
thorax -6.77884 -2.2479 1.77475
lowerneck -18.7471 -5.23944 -2.88437
upperneck 40.2346 -6.57418 1.22517
head 18.4521 -2.57797 -0.176256
rclavicle -3.9906e-014 2.38542e-015
rhumerus -41.5605 6.60124 -84.2209
rradius 52.85
rwrist -18.4133
rhand -43.4881 0.805937
rfingers 7.12502
rthumb -16.3284 -28.5267
lclavicle -3.9906e-014 2.38542e-015
lhumerus -23.4073 -32.7975 106.405
lradius 65.822
lwrist 26.0096
lhand -29.8311 6.60529
lfingers 7.12502
lthumb -3.15437 36.5617
rfemur -24.7841 -8.31295 17.0207
rtibia 59.7391
rfoot -47.8314 3.41041
rtoes -12.5242
lfemur -16.2416 7.48523 -15.687
ltibia 58.1898
lfoot -42.1173 7.85872
ltoes -26.0745
116
root -13.3912 18.7481 7.98281 11.6837 72.4646 9.71863
lowerback 11.0361 -3.09344 -5.66633
upperback -0.758421 -4.96858 -1.9144
thorax -6.68659 -2.24665 1.96892
lowerneck -18.4279 -5.3004 -2.79873
upperneck 40.1779 -6.6786 1.19569
head 18.3287 -2.61108 -0.215237
rclavicle -2.06239e-014 2.14687e-014
rhumerus -42.1772 6.39544 -84.501
rradius 52.9737
rwrist -18.5864
rhand -43.2776 0.88408
rfingers 7.12502
rthumb -16.1257 -28.465
lclavicle -2.06239e-014 2.14687e-014
lhumerus -24.3704 -32.5604 106.801
lradius 65.0479
lwrist 25.9923
lhand -29.5642 6.74326
lfingers 7.12502
lthumb -2.89663 36.7033
rfemur -24.6011 -8.3703 16.9941
rtibia 59.6203
rfoot -47.8805 3.04718
rtoes -12.395
lfemur -15.4621 6.47226 -15.9453
ltibia 57.0136
lfoot -43.8446 7.99035
ltoes -25.9851
117
root -13.3679 18.7535 8.3702 11.2778 73.4531 9.23142
lowerback 10.8196 -3.24812 -5.68745
upperback -0.80619 -5.15718 -1.79173
thorax -6.58823 -2.34002 2.12439
lowerneck -18.3093 -5.30299 -2.67418
upperneck 40.1638 -6.65768 1.04218
head 18.2709 -2.60512 -0.29944
rclavicle 3.35946e-014 -7.95139e-016
rhumerus -42.6321 6.48892 -84.8301
rradius 52.9973
rwrist -18.4489
rhand -42.7384 0.727029
rfingers 7.12502
rthumb -15.6064 -28.6634
lclavicle 3.35946e-014 -7.95139e-016
lhumerus -25.1124 -32.0905 107.011
lradius 64.2818
lwrist 25.9936
lhand -29.2691 6.89437
lfingers 7.12502
lthumb -2.61155 36.8581
rfemur -24.5144 -8.17037 17.0552
rtibia 59.6199
rfoot -47.888 2.52107
rtoes -13.1171
lfemur -14.7376 4.53136 -16.0055
ltibia 55.9781
lfoot -45.6224 6.5335
ltoes -24.3407
118
root -13.3505 18.7376 8.75894 10.8395 74.3705 8.76231
lowerback 10.6676 -3.34113 -5.81382
upperback -0.831766 -5.27989 -1.66394
thorax -6.49705 -2.39715 2.33588
lowerneck -18.2104 -5.33833 -2.64572
upperneck 40.1553 -6.68804 0.97949
head 18.2346 -2.6203 -0.335717
rclavicle 4.03533e-014 -5.56597e-015
rhumerus -43.0609 6.72558 -85.1999
rradius 53.0619
rwrist -18.6029
rhand -42.7223 0.808554
rfingers 7.12502
rthumb -15.5909 -28.5831
lclavicle 4.03533e-014 -5.56597e-015
lhumerus -25.8876 -31.8282 107.197
lradius 63.604
lwrist 26.0586
lhand -29.4538 7.05604
lfingers 7.12502
lthumb -2.78994 37.0175
rfemur -24.4073 -7.90105 16.9482
rtibia 59.6949
rfoot -47.7506 2.82348
rtoes -13.1638
lfemur -13.9172 2.70766 -15.8591
ltibia 54.9749
lfoot -47.0585 2.74144
ltoes -20.0162
119
root -13.3371 18.7037 9.14299 10.0729 75.234 7.97348
lowerback 10.5664 -3.46202 -5.92115
upperback -0.84959 -5.43727 -1.47422
thorax -6.41799 -2.47105 2.6092
lowerneck -18.1575 -5.34328 -2.67818
upperneck 40.122 -6.64456 0.904711
head 18.1969 -2.6187 -0.353288
rclavicle 1.37161e-014 8.74653e-015
rhumerus -43.3465 7.03153 -85.5557
rradius 53.0792
rwrist -18.6952
rhand -42.178 0.724654
rfingers 7.12502
rthumb -15.0666 -28.7071
lclavicle 1.37161e-014 8.74653e-015
lhumerus -26.5285 -31.2978 107.313
lradius 62.9698
lwrist 26.2088
lhand -29.2891 7.42546
lfingers 7.12502
lthumb -2.63087 37.389
rfemur -24.3436 -7.54121 16.8284
rtibia 59.8053
rfoot -47.2385 4.13342
rtoes -11.9056
lfemur -13.3531 1.28549 -15.6434
ltibia 54.2572
lfoot -47.6856 -0.141413
ltoes -16.676
120
root -13.3185 18.6934 9.52629 9.17194 76.1589 6.96388
lowerback 10.4215 -3.58088 -5.83426
upperback -0.909332 -5.57161 -1.35999
thorax -6.38475 -2.5396 2.69117
lowerneck -18.194 -5.31651 -2.53558
upperneck 40.1787 -6.61501 0.82473
head 18.2259 -2.59109 -0.409641
rclavicle -1.91827e-014 1.27222e-014
rhumerus -43.699 7.20238 -85.9611
rradius 52.9692
rwrist -18.274
rhand -42.0665 0.711149
rfingers 7.12502
rthumb -14.9592 -28.7286
lclavicle -1.91827e-014 1.27222e-014
lhumerus -27.2285 -30.8395 107.382
lradius 62.354
lwrist 26.4588
lhand -29.261 7.6439
lfingers 7.12502
lthumb -2.60379 37.6078
rfemur -24.2274 -6.82651 16.7532
rtibia 59.7994
rfoot -46.825 5.84001
rtoes -9.25509
lfemur -13.0841 -0.0357416 -15.4172
ltibia 53.72
lfoot -48.0809 -2.6505
ltoes -13.0006
